<?xml version="1.0" encoding="UTF-8" standalone="no"?>
<!-- Created with Inkscape (http://www.inkscape.org/) -->

<svg
   width="256"
   height="256"
   viewBox="0 0 67.733332 67.733333"
   version="1.1"
   id="svg287"
   xml:space="preserve"
   inkscape:export-filename="ChannelF-content.png"
   inkscape:export-xdpi="96"
   inkscape:export-ydpi="96"
   inkscape:version="1.2.2 (b0a8486541, 2022-12-01)"
   sodipodi:docname="ChannelF-Cart.svg"
   xmlns:inkscape="http://www.inkscape.org/namespaces/inkscape"
   xmlns:sodipodi="http://sodipodi.sourceforge.net/DTD/sodipodi-0.dtd"
   xmlns="http://www.w3.org/2000/svg"
   xmlns:svg="http://www.w3.org/2000/svg"><sodipodi:namedview
     id="namedview289"
     pagecolor="#505050"
     bordercolor="#eeeeee"
     borderopacity="1"
     inkscape:showpageshadow="0"
     inkscape:pageopacity="0"
     inkscape:pagecheckerboard="0"
     inkscape:deskcolor="#d1d1d1"
     inkscape:document-units="mm"
     showgrid="false"
     inkscape:zoom="1.4142136"
     inkscape:cx="5.3033008"
     inkscape:cy="58.689863"
     inkscape:window-width="2560"
     inkscape:window-height="1367"
     inkscape:window-x="2560"
     inkscape:window-y="36"
     inkscape:window-maximized="1"
     inkscape:current-layer="layer1" /><defs
     id="defs284"><inkscape:path-effect
       effect="fillet_chamfer"
       id="path-effect5265"
       is_visible="true"
       lpeversion="1"
       nodesatellites_param="F,0,0,1,0,3.9237383,0,1 @ F,0,0,1,0,0,0,1 @ F,0,0,1,0,0,0,1"
       unit="px"
       method="auto"
       mode="F"
       radius="30"
       chamfer_steps="1"
       flexible="false"
       use_knot_distance="true"
       apply_no_radius="true"
       apply_with_radius="true"
       only_selected="false"
       hide_knots="false" /><rect
       x="-814.00885"
       y="-444.1228"
       width="0.52770334"
       height="85.868622"
       id="rect5060" /><rect
       x="-1253.4731"
       y="-451.14908"
       width="869.34821"
       height="271.50116"
       id="rect5004" /><rect
       x="-962.67346"
       y="153.04443"
       width="697.35858"
       height="108.41476"
       id="rect4946" /><filter
       style="color-interpolation-filters:sRGB"
       inkscape:label="Drop Shadow"
       id="filter5208"
       x="-0.0030210081"
       y="-0.016194586"
       width="1.0148534"
       height="1.0323892"><feFlood
         flood-opacity="0.498039"
         flood-color="rgb(0,0,0)"
         result="flood"
         id="feFlood5198" /><feComposite
         in="flood"
         in2="SourceGraphic"
         operator="in"
         result="composite1"
         id="feComposite5200" /><feGaussianBlur
         in="composite1"
         stdDeviation="0.1"
         result="blur"
         id="feGaussianBlur5202" /><feOffset
         dx="0.7"
         dy="2.77556e-17"
         result="offset"
         id="feOffset5204" /><feComposite
         in="SourceGraphic"
         in2="offset"
         operator="over"
         result="composite2"
         id="feComposite5206" /></filter><filter
       style="color-interpolation-filters:sRGB"
       inkscape:label="Drop Shadow"
       id="filter5820"
       x="0"
       y="0"
       width="1.2480267"
       height="1.0416736"><feFlood
         flood-opacity="0.498039"
         flood-color="rgb(0,0,0)"
         result="flood"
         id="feFlood5810" /><feComposite
         in="flood"
         in2="SourceGraphic"
         operator="in"
         result="composite1"
         id="feComposite5812" /><feGaussianBlur
         in="composite1"
         stdDeviation="0"
         result="blur"
         id="feGaussianBlur5814" /><feOffset
         dx="3.5"
         dy="1.6"
         result="offset"
         id="feOffset5816" /><feComposite
         in="SourceGraphic"
         in2="offset"
         operator="over"
         result="composite2"
         id="feComposite5818" /></filter></defs><g
     inkscape:label="Ebene 1"
     inkscape:groupmode="layer"
     id="layer1"><text
       xml:space="preserve"
       transform="scale(0.26458333)"
       id="text5058"
       style="font-size:24px;line-height:0;font-family:'Argentum Novus';-inkscape-font-specification:'Argentum Novus, Normal';text-align:center;letter-spacing:10px;word-spacing:0px;white-space:pre;shape-inside:url(#rect5060);fill:#ffffff;fill-opacity:1;stroke-width:0.778583;stroke-linecap:round;stroke-linejoin:round;stroke-miterlimit:5;paint-order:fill markers stroke" /><g
       id="g6115"
       transform="matrix(0.18833861,0,0,0.18833861,63.504252,5.8983827)"><path
         id="rect526"
         style="fill:#e9b41e;stroke-width:0.206;stroke-linecap:round;stroke-linejoin:round;stroke-miterlimit:5;paint-order:fill markers stroke"
         d="m -268.69814,-13.055206 212.465621,0.01016 7.693454,7.4384461 0.0642,313.1505499 c 2.85e-4,1.39124 -1.12002,2.51126 -2.511255,2.51126 h -222.93301 c -1.39124,0 -2.51126,-1.12002 -2.51126,-2.51126 V -5.6065897 Z"
         sodipodi:nodetypes="cccsssscc" /><rect
         style="fill:#ab8510;fill-opacity:1;stroke-width:0.21397;stroke-linecap:round;stroke-linejoin:round;stroke-miterlimit:5;paint-order:fill markers stroke"
         id="rect4367"
         width="227.94897"
         height="62.290798"
         x="-276.43039"
         y="244.43498"
         ry="0" /><g
         id="g4211"
         style="fill:#e9b41e;fill-opacity:1"
         transform="matrix(1,0,0,0.94242175,-529.44816,12.798595)"><rect
           style="fill:#e9b41e;fill-opacity:1;stroke-width:0.207276;stroke-linecap:round;stroke-linejoin:round;stroke-miterlimit:5;paint-order:fill markers stroke"
           id="rect4202"
           width="233.46799"
           height="3.4692459"
           x="249.94124"
           y="245.57651"
           ry="1.734623" /><rect
           style="fill:#e9b116;fill-opacity:1;stroke-width:0.206;stroke-linecap:round;stroke-linejoin:round;stroke-miterlimit:5;paint-order:fill markers stroke"
           id="rect4204"
           width="4.2663574"
           height="6.9384918"
           x="249.94124"
           y="242.10725"
           ry="1.9990234" /><rect
           style="fill:#e9b116;fill-opacity:1;stroke-width:0.206;stroke-linecap:round;stroke-linejoin:round;stroke-miterlimit:5;paint-order:fill markers stroke"
           id="rect4206"
           width="4.2663574"
           height="6.9384918"
           x="479.78348"
           y="242.10727"
           ry="1.9990234" /></g><g
         id="g4219"
         transform="matrix(1,0,0,0.94242175,-529.44816,19.737088)"
         style="fill:#e9b41e;fill-opacity:1"><rect
           style="fill:#e9b41e;fill-opacity:1;stroke-width:0.207276;stroke-linecap:round;stroke-linejoin:round;stroke-miterlimit:5;paint-order:fill markers stroke"
           id="rect4213"
           width="233.46799"
           height="3.4692459"
           x="249.94124"
           y="245.57651"
           ry="1.734623" /><rect
           style="fill:#e9b116;fill-opacity:1;stroke-width:0.206;stroke-linecap:round;stroke-linejoin:round;stroke-miterlimit:5;paint-order:fill markers stroke"
           id="rect4215"
           width="4.2663574"
           height="6.9384918"
           x="249.94124"
           y="242.10725"
           ry="1.9990234" /><rect
           style="fill:#e9b116;fill-opacity:1;stroke-width:0.206;stroke-linecap:round;stroke-linejoin:round;stroke-miterlimit:5;paint-order:fill markers stroke"
           id="rect4217"
           width="4.2663574"
           height="6.9384918"
           x="479.78348"
           y="242.10727"
           ry="1.9990234" /></g><g
         id="g4227"
         transform="matrix(1,0,0,0.94242175,-529.44816,26.67558)"
         style="fill:#e9b41e;fill-opacity:1"><rect
           style="fill:#e9b41e;fill-opacity:1;stroke-width:0.207276;stroke-linecap:round;stroke-linejoin:round;stroke-miterlimit:5;paint-order:fill markers stroke"
           id="rect4221"
           width="233.46799"
           height="3.4692459"
           x="249.94124"
           y="245.57651"
           ry="1.734623" /><rect
           style="fill:#e9b116;fill-opacity:1;stroke-width:0.206;stroke-linecap:round;stroke-linejoin:round;stroke-miterlimit:5;paint-order:fill markers stroke"
           id="rect4223"
           width="4.2663574"
           height="6.9384918"
           x="249.94124"
           y="242.10725"
           ry="1.9990234" /><rect
           style="fill:#e9b116;fill-opacity:1;stroke-width:0.206;stroke-linecap:round;stroke-linejoin:round;stroke-miterlimit:5;paint-order:fill markers stroke"
           id="rect4225"
           width="4.2663574"
           height="6.9384918"
           x="479.78348"
           y="242.10727"
           ry="1.9990234" /></g><g
         id="g4235"
         transform="matrix(1,0,0,0.94242175,-529.44816,33.614072)"
         style="fill:#e9b41e;fill-opacity:1"><rect
           style="fill:#e9b41e;fill-opacity:1;stroke-width:0.207276;stroke-linecap:round;stroke-linejoin:round;stroke-miterlimit:5;paint-order:fill markers stroke"
           id="rect4229"
           width="233.46799"
           height="3.4692459"
           x="249.94124"
           y="245.57651"
           ry="1.734623" /><rect
           style="fill:#e9b116;fill-opacity:1;stroke-width:0.206;stroke-linecap:round;stroke-linejoin:round;stroke-miterlimit:5;paint-order:fill markers stroke"
           id="rect4231"
           width="4.2663574"
           height="6.9384918"
           x="249.94124"
           y="242.10725"
           ry="1.9990234" /><rect
           style="fill:#e9b116;fill-opacity:1;stroke-width:0.206;stroke-linecap:round;stroke-linejoin:round;stroke-miterlimit:5;paint-order:fill markers stroke"
           id="rect4233"
           width="4.2663574"
           height="6.9384918"
           x="479.78348"
           y="242.10727"
           ry="1.9990234" /></g><g
         id="g4243"
         transform="matrix(1,0,0,0.94242175,-529.44816,40.874254)"
         style="fill:#e9b41e;fill-opacity:1"><rect
           style="fill:#e9b41e;fill-opacity:1;stroke-width:0.207276;stroke-linecap:round;stroke-linejoin:round;stroke-miterlimit:5;paint-order:fill markers stroke"
           id="rect4237"
           width="233.46799"
           height="3.4692459"
           x="249.94124"
           y="245.57651"
           ry="1.734623" /><rect
           style="fill:#e9b116;fill-opacity:1;stroke-width:0.206;stroke-linecap:round;stroke-linejoin:round;stroke-miterlimit:5;paint-order:fill markers stroke"
           id="rect4239"
           width="4.2663574"
           height="6.9384918"
           x="249.94124"
           y="242.10725"
           ry="1.9990234" /><rect
           style="fill:#e9b116;fill-opacity:1;stroke-width:0.206;stroke-linecap:round;stroke-linejoin:round;stroke-miterlimit:5;paint-order:fill markers stroke"
           id="rect4241"
           width="4.2663574"
           height="6.9384918"
           x="479.78348"
           y="242.10727"
           ry="1.9990234" /></g><g
         id="g4251"
         transform="matrix(1,0,0,0.94242175,-529.44816,47.812746)"
         style="fill:#e9b41e;fill-opacity:1"><rect
           style="fill:#e9b41e;fill-opacity:1;stroke-width:0.207276;stroke-linecap:round;stroke-linejoin:round;stroke-miterlimit:5;paint-order:fill markers stroke"
           id="rect4245"
           width="233.46799"
           height="3.4692459"
           x="249.94124"
           y="245.57651"
           ry="1.734623" /><rect
           style="fill:#e9b116;fill-opacity:1;stroke-width:0.206;stroke-linecap:round;stroke-linejoin:round;stroke-miterlimit:5;paint-order:fill markers stroke"
           id="rect4247"
           width="4.2663574"
           height="6.9384918"
           x="249.94124"
           y="242.10725"
           ry="1.9990234" /><rect
           style="fill:#e9b116;fill-opacity:1;stroke-width:0.206;stroke-linecap:round;stroke-linejoin:round;stroke-miterlimit:5;paint-order:fill markers stroke"
           id="rect4249"
           width="4.2663574"
           height="6.9384918"
           x="479.78348"
           y="242.10727"
           ry="1.9990234" /></g><g
         id="g4259"
         transform="matrix(1,0,0,0.94242175,-529.44816,54.751238)"
         style="fill:#e9b41e;fill-opacity:1"><rect
           style="fill:#e9b41e;fill-opacity:1;stroke-width:0.207276;stroke-linecap:round;stroke-linejoin:round;stroke-miterlimit:5;paint-order:fill markers stroke"
           id="rect4253"
           width="233.46799"
           height="3.4692459"
           x="249.94124"
           y="245.57651"
           ry="1.734623" /><rect
           style="fill:#e9b116;fill-opacity:1;stroke-width:0.206;stroke-linecap:round;stroke-linejoin:round;stroke-miterlimit:5;paint-order:fill markers stroke"
           id="rect4255"
           width="4.2663574"
           height="6.9384918"
           x="249.94124"
           y="242.10725"
           ry="1.9990234" /><rect
           style="fill:#e9b116;fill-opacity:1;stroke-width:0.206;stroke-linecap:round;stroke-linejoin:round;stroke-miterlimit:5;paint-order:fill markers stroke"
           id="rect4257"
           width="4.2663574"
           height="6.9384918"
           x="479.78348"
           y="242.10727"
           ry="1.9990234" /></g><g
         id="g4267"
         transform="matrix(1,0,0,0.94242175,-529.44816,61.68973)"
         style="fill:#e9b41e;fill-opacity:1"><rect
           style="fill:#e9b41e;fill-opacity:1;stroke-width:0.207276;stroke-linecap:round;stroke-linejoin:round;stroke-miterlimit:5;paint-order:fill markers stroke"
           id="rect4261"
           width="233.46799"
           height="3.4692459"
           x="249.94124"
           y="245.57651"
           ry="1.734623" /><rect
           style="fill:#e9b116;fill-opacity:1;stroke-width:0.206;stroke-linecap:round;stroke-linejoin:round;stroke-miterlimit:5;paint-order:fill markers stroke"
           id="rect4263"
           width="4.2663574"
           height="6.9384918"
           x="249.94124"
           y="242.10725"
           ry="1.9990234" /><rect
           style="fill:#e9b116;fill-opacity:1;stroke-width:0.206;stroke-linecap:round;stroke-linejoin:round;stroke-miterlimit:5;paint-order:fill markers stroke"
           id="rect4265"
           width="4.2663574"
           height="6.9384918"
           x="479.78348"
           y="242.10727"
           ry="1.9990234" /></g><g
         id="g4275"
         transform="matrix(1,0,0,0.94242175,-529.44816,68.628222)"
         style="fill:#e9b41e;fill-opacity:1"><rect
           style="fill:#e9b41e;fill-opacity:1;stroke-width:0.207276;stroke-linecap:round;stroke-linejoin:round;stroke-miterlimit:5;paint-order:fill markers stroke"
           id="rect4269"
           width="233.46799"
           height="3.4692459"
           x="249.94124"
           y="245.57651"
           ry="1.734623" /><rect
           style="fill:#e9b116;fill-opacity:1;stroke-width:0.206;stroke-linecap:round;stroke-linejoin:round;stroke-miterlimit:5;paint-order:fill markers stroke"
           id="rect4271"
           width="4.2663574"
           height="6.9384918"
           x="249.94124"
           y="242.10725"
           ry="1.9990234" /><rect
           style="fill:#e9b116;fill-opacity:1;stroke-width:0.206;stroke-linecap:round;stroke-linejoin:round;stroke-miterlimit:5;paint-order:fill markers stroke"
           id="rect4273"
           width="4.2663574"
           height="6.9384918"
           x="479.78348"
           y="242.10727"
           ry="1.9990234" /></g><g
         id="g6054"
         transform="translate(301.86527,-7.3379916)"><rect
           style="fill:#000000;fill-opacity:1;stroke-width:0.208079;stroke-linecap:round;stroke-linejoin:round;stroke-miterlimit:5;paint-order:fill markers stroke"
           id="rect4890"
           width="184.50946"
           height="221.23703"
           x="-556.57263"
           y="19.728706"
           ry="4.0412827" /><text
           xml:space="preserve"
           transform="matrix(1.2738141,0,0,0.94763185,1045.4736,477.62375)"
           id="text5002"
           style="font-size:24px;line-height:1;font-family:'Argentum Novus';-inkscape-font-specification:'Argentum Novus, Normal';text-align:center;letter-spacing:0.450682px;word-spacing:0px;white-space:pre;shape-inside:url(#rect5004);fill:#ffffff;fill-opacity:1;stroke-width:0.778583;stroke-linecap:round;stroke-linejoin:round;stroke-miterlimit:5;paint-order:fill markers stroke"
           x="0"
           y="0"><tspan
             x="-1253.4727"
             y="-432.1228"
             id="tspan6233"><tspan
               style="font-family:CstBerlinWestOTW03-Bold;-inkscape-font-specification:'CstBerlinWestOTW03-Bold, Normal';text-align:justify;text-anchor:start;fill:#f9f9f9;stroke:#f9f9f9"
               id="tspan6231">VIDEO GAME
</tspan></tspan><tspan
             x="-1253.4727"
             y="-408.07202"
             id="tspan6237"><tspan
               style="font-family:CstBerlinWestOTW03-Bold;-inkscape-font-specification:'CstBerlinWestOTW03-Bold, Normal';text-align:justify;text-anchor:start;fill:#f9f9f9;stroke:#f9f9f9"
               id="tspan6235">CARTRIDGE</tspan></tspan></text><g
           id="g5486"
           transform="matrix(0.20099664,0,0,0.20099664,-388.93653,64.277855)"><g
             id="g5426"
             transform="translate(-150.56591,8.7628272)"><path
               style="fill:#aa0000;stroke-width:0.16466"
               d="m -171.59995,-170.3004 v -3.21087 h 3.2932 3.29319 v 3.21087 3.21086 h -3.29319 -3.2932 z"
               id="path5474" /><path
               style="fill:#aa0000;stroke-width:0.16466"
               d="m -158.26251,-141.55947 v -31.9518 h 3.2932 3.29319 v 6.32692 6.32692 l 4.16181,0.0537 4.16181,0.0536 1.06789,0.52606 c 1.3857,0.68262 2.54014,1.83472 3.18525,3.17879 l 0.5137,1.07029 v 20.74713 20.74713 l -0.5137,1.07029 c -0.64519,1.34423 -1.79965,2.49626 -3.18553,3.17879 l -1.06816,0.52605 -7.45473,0.049 -7.45473,0.049 v -31.9518 z m 13.17278,6.3316 v -19.01821 h -3.29319 -3.2932 v 19.01821 19.0182 h 3.2932 3.29319 z"
               id="path5472" /><path
               style="fill:#aa0000;stroke-width:0.16466"
               d="m -196.46357,-141.56747 v -31.944 h 3.29319 3.2932 v 28.63606 28.63605 l 4.07533,0.0673 c 4.52512,0.0747 4.85559,0.13813 6.31792,1.21158 0.44426,0.32611 1.10452,1.00737 1.46724,1.51391 0.6452,0.90101 1.31229,2.64399 1.31229,3.42877 v 0.3943 h -9.87959 -9.87958 z"
               id="path5470" /><path
               style="fill:#aa0000;stroke-width:0.16466"
               d="m -166.9093,-109.42568 c -1.96703,-0.68019 -3.54435,-2.0927 -4.22898,-3.78711 l -0.37934,-0.93883 -0.0439,-23.34053 -0.0439,-23.34052 h 3.29596 3.29595 v 25.85159 25.85158 l -0.53514,-0.005 c -0.29433,-0.003 -0.9066,-0.13382 -1.3606,-0.29081 z"
               id="path5468" /><path
               style="fill:#ffffff;stroke-width:0.16466"
               d="m 75.225042,-141.15583 v -32.19098 l 27.210028,9.2e-4 c 19.05484,6.5e-4 27.40742,0.0545 27.86867,0.17969 0.45902,0.12459 0.95937,0.48611 1.65094,1.19287 0.96249,0.98362 1.13023,1.3035 5.58316,10.64669 2.52497,5.29793 4.72454,10.10237 4.88797,10.67653 0.24776,0.87058 0.26649,1.17659 0.11271,1.84279 -0.19033,0.82452 0.0823,0.49429 -12.60273,15.26696 l -0.74225,0.86441 6.60508,11.59182 c 3.6328,6.37549 6.65085,11.71106 6.70679,11.85682 0.0929,0.24209 -0.77142,0.26135 -9.99067,0.22258 l -10.09238,-0.0424 -8.85319,-14.65471 c -4.86925,-8.0601 -8.90251,-14.89678 -8.96278,-15.19261 -0.13802,-0.67746 0.17364,-1.45771 0.72745,-1.82127 0.35585,-0.23359 1.07065,-0.28797 4.70871,-0.3582 3.65013,-0.0705 4.37585,-0.12592 4.8708,-0.37223 0.36176,-0.18002 1.90311,-1.78067 4.07732,-4.23422 l 3.49571,-3.94479 -1.7582,-4.40995 c -1.48652,-3.72845 -1.8529,-4.50161 -2.37095,-5.00311 -0.33699,-0.32625 -0.85266,-0.64116 -1.1459,-0.69981 -0.29326,-0.0587 -5.30318,-0.10664 -11.13316,-0.10664 H 95.478196 v 25.43993 25.43994 H 85.351618 75.225042 Z"
               id="path5466" /><path
               style="fill:#ffffff;stroke-width:0.16466"
               d="m 27.927791,-119.05025 -0.04243,-10.08541 -10.085411,-0.0424 -10.0854105,-0.0424 v -11.93531 -11.9353 l 10.0854105,-0.0424 10.085411,-0.0424 0.04243,-10.08541 0.04243,-10.08541 h 11.936565 11.936566 v 10.12658 10.12657 H 61.96993 72.096506 v 11.93783 11.93784 H 61.96993 51.843355 v 10.12658 10.12657 H 39.906789 27.970224 Z m 15.435585,-0.28815 3.454908,-3.45786 h -6.912763 -6.912763 l 3.454908,3.45786 c 1.900207,1.90182 3.456242,3.45785 3.457855,3.45785 0.0016,0 1.557649,-1.55603 3.457855,-3.45785 z m -1.564267,-15.01888 c 1.940531,-0.57073 3.613722,-2.01422 4.497681,-3.88023 0.490604,-1.03563 0.524442,-1.22393 0.524442,-2.91832 0,-1.68502 -0.03555,-1.88584 -0.510018,-2.88154 -0.745052,-1.56353 -1.821828,-2.67231 -3.308969,-3.40729 -1.104604,-0.54593 -1.408829,-0.62065 -2.769265,-0.68015 -1.73255,-0.0758 -2.771701,0.17645 -4.057266,0.98481 -3.93853,2.47653 -4.497978,7.94187 -1.131954,11.05822 1.933847,1.7904 4.395033,2.4187 6.755349,1.7245 z m -20.253152,-6.83824 v -6.87307 l -3.457872,3.45493 -3.457871,3.45493 3.415241,3.41814 c 1.878373,1.87998 3.434424,3.41814 3.457872,3.41814 0.02345,0 0.04263,-3.09288 0.04263,-6.87307 z m 40.219631,3.45493 3.415241,-3.41814 -3.418139,-3.41524 c -1.879987,-1.87838 -3.47307,-3.41524 -3.540202,-3.41524 -0.06713,0 -0.122062,3.07503 -0.122062,6.83338 0,3.75836 0.05623,6.83338 0.12496,6.83338 0.06873,0 1.661829,-1.53816 3.540202,-3.41814 z m -18.402212,-25.23265 c -1.900206,-1.90182 -3.456241,-3.45786 -3.457855,-3.45786 -0.0016,0 -1.557648,1.55604 -3.457855,3.45786 l -3.454908,3.45785 h 6.912763 6.912763 z"
               id="path5464" /><path
               style="fill:#ffffff;stroke-width:0.16466"
               d="m -59.960629,-130.70513 c 0,-21.49129 0.0039,-21.75177 0.338025,-22.74369 0.541023,-1.606 9.78959,-18.39974 10.476368,-19.0232 0.364529,-0.33093 0.879563,-0.58947 1.394029,-0.69981 0.557403,-0.11954 9.447252,-0.17498 28.058993,-0.17498 H 7.5498775 v 6.75105 6.75105 l -20.3766475,9.9e-4 c -13.539973,6.6e-4 -20.582603,0.0581 -20.990481,0.17139 -1.066419,0.29617 -1.500693,1.04503 -3.770396,6.50171 -1.165907,2.803 -2.11983,5.11551 -2.11983,5.13892 0,0.0234 9.113918,0.0426 20.253151,0.0426 H 0.7988265 v 6.83338 6.83338 H -19.454326 -39.707477 v 5.92776 5.92775 H -16.0788 7.5498775 v 6.75105 6.75105 H -26.205376 -59.960629 v -21.74029 z"
               id="path5462" /><path
               style="fill:#ffffff;stroke-width:0.16466"
               d="m -131.2583,-141.15772 v -32.19288 l 27.53934,0.0431 c 25.946909,0.0406 27.570053,0.0599 28.070413,0.33334 0.914686,0.49995 1.834525,1.61975 2.666276,3.24586 1.834233,3.58603 8.802916,18.42692 9.009397,19.18691 0.178055,0.65535 0.184576,1.00105 0.03197,1.69466 -0.180106,0.81861 -0.589439,1.33431 -6.761551,8.51861 l -6.569837,7.64725 6.207583,10.91125 c 3.414169,6.00118 6.455183,11.33786 6.757808,11.85928 l 0.550225,0.94805 -10.146282,-0.0424 -10.146282,-0.0424 -8.864881,-14.698 c -4.875682,-8.0839 -8.910139,-14.87835 -8.965469,-15.09879 -0.14622,-0.58259 0.22269,-1.53875 0.71952,-1.86488 0.36798,-0.24156 1.04945,-0.29582 4.719271,-0.37578 2.860951,-0.0623 4.464767,-0.16275 4.816486,-0.30153 0.348582,-0.13755 1.548398,-1.36157 3.539971,-3.61139 1.656968,-1.87182 3.255792,-3.67408 3.552942,-4.00502 l 0.540273,-0.60171 -1.655959,-4.19684 c -1.711724,-4.33816 -2.064364,-5.03247 -2.852814,-5.61681 -0.4592,-0.34032 -0.597032,-0.34501 -11.485019,-0.39011 l -11.020231,-0.0457 v 25.44443 25.44442 h -10.12658 -10.12657 z"
               id="path5460" /><path
               style="fill:#ffffff;stroke-width:0.16466"
               d="m 155.848,-109.06161 c -4.02558,-0.73371 -7.62722,-3.6388 -9.2288,-7.44396 -1.03996,-2.47086 -0.97963,-1.12014 -1.04221,-23.33298 -0.037,-13.12568 0.003,-20.84889 0.11266,-21.94599 0.53812,-5.36786 3.9311,-9.51076 9.09264,-11.10233 l 1.20837,-0.37261 21.07645,-0.0537 c 15.54909,-0.0396 21.40032,-0.003 22.3114,0.13949 4.96229,0.77626 8.81603,4.21521 10.24184,9.13946 l 0.37872,1.30796 v 21.48809 c 0,24.30489 0.0834,22.70221 -1.3264,25.49136 -1.58806,3.14187 -4.31496,5.40267 -7.81673,6.48062 l -1.23044,0.37877 -21.24111,0.0309 c -17.83094,0.026 -21.44906,-0.007 -22.53639,-0.20514 z m 25.82748,-13.15702 c 1.73546,-0.37326 3.13701,-0.8684 4.77296,-1.68621 8.58544,-4.29185 12.68195,-14.19841 9.63363,-23.29698 -0.97012,-2.89566 -2.41773,-5.2107 -4.67494,-7.47629 -8.27461,-8.30537 -21.92561,-7.29619 -28.99304,2.14336 -4.69987,6.27735 -5.04636,14.88379 -0.87126,21.64144 1.01017,1.63503 3.97854,4.74372 5.42293,5.6793 2.88045,1.86574 5.30819,2.76268 8.94873,3.30612 0.91833,0.13708 4.60284,-0.0617 5.76099,-0.31074 z"
               id="path5423" /></g></g><path
           id="path5262"
           style="fill:#f9f9f9;stroke:#f9f9f9;stroke-width:0.125571;stroke-linecap:round;stroke-linejoin:round;stroke-miterlimit:5;paint-order:fill markers stroke"
           inkscape:transform-center-x="13.295978"
           inkscape:transform-center-y="-13.578715"
           d="m -376.0497,240.90294 -79.4095,1e-5 83.33324,-84.32504 v 80.40129 a 3.9237388,3.9237388 135 0 1 -3.92374,3.92374 z"
           sodipodi:nodetypes="cccc"
           inkscape:path-effect="#path-effect5265"
           inkscape:original-d="m -372.12596,240.90294 -83.33324,1e-5 83.33324,-84.32504 z" /><text
           xml:space="preserve"
           style="font-style:normal;font-variant:normal;font-weight:normal;font-stretch:normal;font-size:53.2505px;line-height:0;font-family:CstBerlinWestOTW03-Bold;-inkscape-font-specification:'CstBerlinWestOTW03-Bold, Normal';font-variant-ligatures:normal;font-variant-caps:normal;font-variant-numeric:normal;font-variant-east-asian:normal;text-align:justify;letter-spacing:16.8536px;word-spacing:0px;text-anchor:start;fill:#a80000;fill-opacity:1;stroke:none;stroke-width:1.3122;stroke-linecap:round;stroke-linejoin:round;stroke-miterlimit:5;paint-order:fill markers stroke;filter:url(#filter5820)"
           x="378.86755"
           y="260.41309"
           id="text5542"
           transform="matrix(1.3241377,0,0,1.043318,-904.68497,-38.598127)"><tspan
             sodipodi:role="line"
             id="tspan5540"
             style="fill:#a80000;fill-opacity:1;stroke:none;stroke-width:1.3122"
             x="378.86755"
             y="260.41309">1</tspan></text><rect
           style="fill:#a80000;fill-opacity:1;stroke:none;stroke-width:0.094476;stroke-linecap:round;stroke-linejoin:round;stroke-miterlimit:5;paint-order:fill markers stroke"
           id="rect5976"
           width="65.137817"
           height="29.733183"
           x="-543.87408"
           y="112.79395"
           ry="1.8534192" /><rect
           style="fill:#338000;fill-opacity:1;stroke:none;stroke-width:0.094476;stroke-linecap:round;stroke-linejoin:round;stroke-miterlimit:5;paint-order:fill markers stroke"
           id="rect5978"
           width="65.137817"
           height="29.733183"
           x="-543.87408"
           y="148.33389"
           ry="1.8534192" /><rect
           style="fill:#000080;fill-opacity:1;stroke:none;stroke-width:0.094476;stroke-linecap:round;stroke-linejoin:round;stroke-miterlimit:5;paint-order:fill markers stroke"
           id="rect6032"
           width="65.137817"
           height="29.733183"
           x="-543.87408"
           y="183.87384"
           ry="1.8534192" /></g></g></g></svg>
